<?xml version="1.0" encoding="UTF-8" standalone="no"?>
<svg
   xmlns="http://www.w3.org/2000/svg"
   viewBox="0 0 390.72105 377.32963"
   version="1.1">
  <g transform="translate(-56.289277,-54.454452)">
    <g style="fill:#5c2d91;stroke:#bb8af2;stroke-width:10;stroke-round:butt;stroke-linejoin:miter;stroke-miterlimit:4">
      <path
         d="m 327.53516,78.048828 27.29492,0 c 7.66171,0.95771 8.13953,3.830571 1.43554,8.619141 l 0,47.408201 68.95508,0 0,185.31641 -28.73047,0 0,-10.05664 -40.22461,0 0,94.81445 -28.73046,0 0,-94.81445 -40.22461,0 0,12.92968 -28.73047,0 0,-188.18945 68.95508,0 z m -40.22461,83.320312 0,45.9707 40.22461,0 0,-45.9707 z m 68.95507,0 0,45.9707 40.22461,0 0,-45.9707 z m -68.95507,73.26563 0,47.4082 40.22461,0 0,-47.4082 z m 68.95507,0 0,47.4082 40.22461,0 0,-47.4082 z"
         transform="translate(-0.23359073,0.91165827)" />
      <path
         d="m 140.94061,76.47768 27.29492,0 c 7.66171,0.95771 8.13953,3.83057 1.43554,8.61914 l 0,56.02539 24.42188,0 7.18359,-7.18164 24.41993,20.11133 c 5.74628,4.78857 4.31082,7.66143 -4.3086,8.61914 -18.19656,33.51999 -34.47804,58.89982 -48.84375,76.13867 20.11199,5.74628 37.82892,13.40723 53.15235,22.98437 l -14.36524,31.60547 c -12.45028,-11.49257 -26.33674,-20.59093 -41.66016,-27.29492 l 0,143.65625 -28.73046,0 0,-136.47461 c -12.45028,14.36571 -28.25394,27.29649 -47.408213,38.78906 L 80.604663,283.34291 C 122.74407,260.35778 157.70011,222.0491 185.47381,168.41713 l -94.814459,0 0,-27.29492 50.281259,0 z" />
    </g>
  </g>
</svg>
