<?xml version="1.0" encoding="UTF-8" standalone="no"?>
<svg
   xmlns:dc="http://purl.org/dc/elements/1.1/"
   xmlns:cc="http://creativecommons.org/ns#"
   xmlns:rdf="http://www.w3.org/1999/02/22-rdf-syntax-ns#"
   xmlns:svg="http://www.w3.org/2000/svg"
   xmlns="http://www.w3.org/2000/svg"
   xmlns:sodipodi="http://sodipodi.sourceforge.net/DTD/sodipodi-0.dtd"
   xmlns:inkscape="http://www.inkscape.org/namespaces/inkscape"
   width="363.39008pt"
   height="478.31586pt"
   viewBox="0 0 363.39008 478.31586"
   version="1.1"
   id="svg4147"
   inkscape:version="0.91 r13725"
   sodipodi:docname="shen.svg"
   inkscape:export-xdpi="48.169006"
   inkscape:export-ydpi="48.169006">
  <title
     id="title4203">Shen Logo</title>
  <metadata
     id="metadata4223">
    <rdf:RDF>
      <cc:Work
         rdf:about="">
        <dc:format>image/svg+xml</dc:format>
        <dc:type
           rdf:resource="http://purl.org/dc/dcmitype/StillImage" />
        <dc:title>Shen Logo</dc:title>
        <dc:creator>
          <cc:Agent>
            <dc:title>Malcolm Still</dc:title>
          </cc:Agent>
        </dc:creator>
        <dc:publisher>
          <cc:Agent>
            <dc:title>www.shenlanguage.com</dc:title>
          </cc:Agent>
        </dc:publisher>
      </cc:Work>
    </rdf:RDF>
  </metadata>
  <defs
     id="defs4221">
    <inkscape:path-effect
       effect="spiro"
       id="path-effect4849"
       is_visible="true" />
    <inkscape:path-effect
       effect="spiro"
       id="path-effect4845"
       is_visible="true" />
    <inkscape:path-effect
       effect="spiro"
       id="path-effect4826"
       is_visible="true" />
    <inkscape:path-effect
       effect="spiro"
       id="path-effect4822"
       is_visible="true" />
    <inkscape:path-effect
       effect="spiro"
       id="path-effect4818"
       is_visible="true" />
    <inkscape:path-effect
       effect="spiro"
       id="path-effect4814"
       is_visible="true" />
    <inkscape:path-effect
       effect="spiro"
       id="path-effect4849-4"
       is_visible="true" />
    <inkscape:path-effect
       effect="spiro"
       id="path-effect4849-41"
       is_visible="true" />
  </defs>
  <sodipodi:namedview
     pagecolor="#ffffff"
     bordercolor="#666666"
     borderopacity="1"
     objecttolerance="10"
     gridtolerance="10"
     guidetolerance="10"
     inkscape:pageopacity="0"
     inkscape:pageshadow="2"
     inkscape:window-width="1920"
     inkscape:window-height="1027"
     id="namedview4219"
     showgrid="false"
     inkscape:zoom="2.78"
     inkscape:cx="92.442967"
     inkscape:cy="171.05669"
     inkscape:window-x="-8"
     inkscape:window-y="-8"
     inkscape:window-maximized="1"
     inkscape:current-layer="svg4147"
     fit-margin-top="0"
     fit-margin-left="0"
     fit-margin-right="0"
     fit-margin-bottom="0" />
  <rect
     style="fill:#ffffff;fill-opacity:1;stroke:none;stroke-width:0.16;stroke-linecap:round;stroke-linejoin:miter;stroke-miterlimit:4;stroke-dasharray:none;stroke-opacity:1"
     id="rect4799"
     width="363.39008"
     height="478.31586"
     x="0"
     y="0"
     rx="15.348495"
     ry="21.695822" />
  <path
     style="opacity:1;fill:#000000"
     inkscape:connector-curvature="0"
     id="path4160"
     d="m 37.371273,399.67182 c 6.46341,-6.82634 14.826149,-6.79455 20.682897,-3.24544 5.856747,3.54911 9.207503,10.61554 9.736953,15.81347 -2.59,1.02 -6.83985,1.70197 -9.54985,2.26197 -1.87136,-6.75132 -7.20185,-13.94112 -13.53,-9.58 -3.87,4.79 -0.3,11.71 4.17,14.75 7.61,6.22 17.38262,13.6869 18.44262,24.4869 -0.641785,13.68305 -9.210045,18.06698 -17.595306,16.40606 -8.385262,-1.66091 -16.587524,-9.36666 -16.497314,-19.86296 3.11,-0.95 6.26,-1.8 9.49,-2.23 0.32597,18.10645 21.36938,14.64356 13.15,1.16 -4.71,-6 -11.72,-9.58 -17,-15.01 -6.9,-6.06 -7.32212,-17.20212 -1.5,-24.95 z"
     sodipodi:nodetypes="cscccccsccccc" />
  <path
     style="opacity:1;fill:#000000"
     inkscape:connector-curvature="0"
     id="path4162"
     d="m 124.90127,395.59182 9.6,0 0,27.2 c 14.4836,0 0.82,0.14 15.2,0 l 0,-27.2 9.52,0 0,64 -9.52,0 0,-29.02 c -15.2,0 0,-0.24 -15.2,0 l 0,29.02 c -9.6,0 0,0 -9.6,0 z"
     sodipodi:nodetypes="ccccccccccccc" />
  <path
     style="opacity:1;fill:#000000"
     inkscape:connector-curvature="0"
     id="path4164"
     d="m 218.50127,395.59182 c 24.42,0 0,0 24,0 0,7.82 0,0 0,7.82 l -14.6104,0 0,19.76 10.2008,0 0,7.38 -10.82,0 0,21.6504 15.2296,0 0,7.3896 -24,0 z"
     sodipodi:nodetypes="ccccccccccccc" />
  <path
     style="opacity:1;fill:#000000"
     inkscape:connector-curvature="0"
     id="path4166"
     d="m 297.70127,395.59182 8.0504,0 15.2896,35.44 0,-35.44 10.3904,0 0,64 -7.4304,0 -15.4696,-38.72 0,38.72 -10.8304,0 z"
     sodipodi:nodetypes="ccccccccccc" />
  <path
     style="opacity:1;fill:#444444;fill-opacity:1"
     inkscape:connector-curvature="0"
     id="path4150"
     d="m 40.051273,19.651822 c 13.69229,-2.92221 44.86594,13.31796 54.71,10.6 10.587317,-1.51801 21.992687,-9.35051 31.309997,-9.72 -0.88,3.86 -4.59,6.09 -6.55,9.38 -7.73,11.27 -14.68,24.39 -13.53,38.49 1.04,7.54 0.13357,10.55928 3.38357,17.46928 2.49,4.83 2.75643,16.190718 7.45643,19.810718 4.27,1.89 8.19,4.43 12.18,6.83 5.26933,0.14661 11.49164,1.20755 16.22,1.02 -7.35809,-18.884898 -12.27154,-54.430498 10.9,-59.889998 6.16,-1.39 9.58,-7.58 15.41,-9.67 7.61821,-1.89544 14.76433,-2.00999 21.56,0.1075 4.86121,1.45557 7.40825,7.02502 11.34,8.6725 23.34881,6.431 22.16586,40.04272 15.24,60.679998 5.75,-0.49 11.78524,-0.0443 17.37,-2.02 3.99,-2.75 8.81,-4.3 12.22,-7.85 2.46,-6.949998 2.49,-14.579998 5.85,-21.219998 3.05,-9.63 4.63,-20.32 1.19,-30.07 -2.6,-6.73 -5.3,-13.57 -9.7,-19.35 -2.75,-4.2 -6.56,-7.68 -8.56,-12.37 11.3911,1.06439 21.95172,8.22067 32.13,9.98 19.20955,-0.62783 36.27897,-11.84555 54,-10.91 -0.81,2.54 -2.21,4.88 -4.4,6.46 -14.2173,7.78516 -26.31607,10.86933 -32.42,26.65 -3.37,8.84 -5,18.29 -5.43,27.7 0.3497,8.26898 -0.77064,16.52387 0.03,23.789998 26.4606,14.4468 21.8079,43.07533 23.22,66.03 5.78316,18.05792 13.62972,33.97228 21.03,49.89 5.83955,17.7423 11.54243,27.12718 1.73,46.16 -6.98,0.70629 -14.03,-1.09 -19.97,-4.81 -16.44789,-10.89246 -30.32449,-23.71336 -48.29,-28.59 3.47,11.79 3.56,25.35 12.52,34.77 29.40968,-5.47454 61.32869,1.91859 69.84,31.76 15.19749,54.251 -61.43847,74.88515 -100.61,66.1 -32.37872,28.28304 -87.70421,27.27782 -118.57,0.51 -40.934587,8.79639 -118.3086374,-14.21069 -100.059997,-69.01 10.1151,-27.18967 44.79545,-34.62503 68.19,-29.27 44.059997,11.85667 88.119997,23.71333 132.179997,35.57 l -122.98,-49.49 c 0.69,-7.09 2.67,-13.97 4.13,-20.93 -20.330077,6.9601 -33.475807,19.42188 -49.749997,29.86 -5.4,2.57 -11.38,3.72 -17.35,3.91 -11.40712,-13.96826 -3.81245,-34.9722 -1.16,-41.48 5.6025,-18.53801 17.0689,-40.12854 22.28,-53.86 0.10021,-22.97144 3.72387,-61.4234 24.22,-66.65 0.03,-9.779998 0.73,-19.639998 -0.48,-29.369998 -1.59695,-10.55662 -4.07689,-22.12875 -9.4,-30.44 -6.8663,-11.16647 -19.91065,-12.88584 -28.89,-19.22 -2.14,-1.29 -2.8,-3.87 -3.74,-6.01"
     sodipodi:nodetypes="ccccccccccccccccccccccccccccccccccccccccccccccccc" />
  <g
     id="g4198"
     style="fill:#ffffff;fill-opacity:1">
    <path
       d="m 69.058826,313.49942 c 2.479598,2.4535 5.885783,5.69002 3.001619,9.17451 -1.187597,-3.00162 -2.179436,-6.06849 -3.001619,-9.17451 z"
       id="path4177"
       inkscape:connector-curvature="0"
       style="opacity:1;fill:#ffffff;fill-opacity:1" />
    <path
       sodipodi:nodetypes="cccccccccccccccccccccccccccccccccccc"
       inkscape:connector-curvature="0"
       id="path4181"
       transform="scale(0.8,0.8)"
       d="m 107.3457,399.79297 c 0.73654,2.78247 1.58635,5.53761 2.55274,8.25781 -0.77288,2.45248 -1.57497,4.98244 -2.44922,7.34766 -2.75692,-0.66884 -5.26288,-2.3749 -7.837892,-3.44141 -1.227172,-0.97141 -2.292229,-1.59995 -3.189453,-3.16601 -2.267526,8.9233 -4.309545,16.62527 -7.898437,25.09179 4.896407,0.84729 7.150674,1.50363 11.033203,2.40235 -3.264082,5.93471 -5.381727,10.73755 -9.816407,18.00195 1.610549,0.46962 2.484781,0.64643 3.966797,1.05078 2.453889,-7.70325 5.606695,-13.64923 8.216799,-18.16797 4.39664,1.12165 6.71653,1.58175 9.76758,3.91602 3.67045,-8.28708 6.70846,-14.93396 10.65625,-23.07422 -4.61662,-0.1305 -7.8704,-1.24966 -12.47071,-2.13672 0.35121,-3.08675 2.99794,-6.17997 2.49414,-9.02539 0.0187,-0.0753 0.006,-0.0276 0.0254,-0.10547 l -0.0449,-0.004 c -0.55432,-2.60181 -3.01401,-4.97639 -5.00586,-6.94726 z m -9.416012,14.66015 c 3.148432,1.0915 5.494462,2.5245 8.177732,3.23633 -0.55515,2.96503 -0.92517,3.79328 -2.05078,6.24024 -3.08318,-0.76671 -5.365456,-1.87059 -8.416015,-2.66992 0.503815,-1.96929 1.36556,-4.64336 2.289063,-6.80665 z m 10.939452,4.07227 c 3.24632,1.27243 6.6044,1.16317 9.44141,2.55078 -1.74551,5.49753 -4.87334,10.53829 -7.32032,15.74219 -2.96899,-0.81566 -4.92749,-1.53463 -7.89648,-2.33398 0.14682,-2.54485 1.74362,-4.4633 2.54297,-6.86133 1.2398,0.0326 4.25476,1.21797 6.14648,1.42773 1.42163,-0.94434 1.47657,-2.35937 1.47657,-2.35937 -2.68153,-1.03837 -4.37853,-1.13319 -6.5,-1.89649 z m -14.02539,5.78516 c 3.148437,1.25611 5.30292,1.44499 8.39648,2.66601 -0.94616,2.02283 -1.82623,4.37608 -2.6582,6.48047 -3.113835,-0.61001 -4.551655,-0.73884 -7.98828,-2.12695 0.610504,-2.88743 1.581161,-4.31156 2.25,-7.01953 z"
       style="opacity:1;fill:#ffffff;fill-opacity:1" />
    <path
       sodipodi:nodetypes="ccccccccccccccc"
       d="m 56.739139,324.52711 c 5.872732,0.70472 11.693262,1.89232 17.644298,1.91842 -2.362144,2.4535 -5.05055,4.54158 -7.804209,6.53831 1.487759,2.97552 2.954767,5.48302 3.77695,8.7326 l -1.097601,0.47488 c -0.97918,-1.1829 -2.894683,-6.04273 -3.671188,-7.26295 -3.811939,7.82595 -6.661427,15.35998 -9.25848,23.08589 -1.00489,-0.37846 -2.057792,-0.93109 -3.062682,-1.43609 3.367111,-7.17301 6.530687,-14.3145 8.693118,-20.52746 -2.244688,0.60033 -9.365977,3.84874 -11.556832,4.60078 l -0.447946,-0.70444 c 7.021178,-3.70635 13.257628,-6.31055 19.521876,-11.29585 -2.048931,-0.93964 -10.570305,-2.80496 -12.779105,-3.26499 l 0.04176,-0.85897 z"
       id="path4183"
       inkscape:connector-curvature="0"
       style="opacity:1;fill:#ffffff;fill-opacity:1" />
  </g>
</svg>
